<svg version="1.2" xmlns="http://www.w3.org/2000/svg" viewBox="0 0 90 90" width="90" height="90">
	<title>Group 2700</title>
	<style>
		.s0 { fill: #7264d6 } 
		.s1 { fill: #ffffff } 
	</style>
	<g>
		<path fill-rule="evenodd" class="s0" d="m45 90c-24.9 0-45-20.1-45-45 0-24.9 20.1-45 45-45 24.9 0 45 20.1 45 45 0 24.9-20.1 45-45 45z"/>
	</g>
	<path class="s1" d="m26.6 33c-1.4 0-2.6 1.2-2.6 2.7v18.6c0 1.5 1.2 2.7 2.6 2.7h36.8c1.4 0 2.6-1.2 2.6-2.7v-18.6c0-1.5-1.2-2.7-2.6-2.7zm0 1.3h36.7c0.8 0 1.3 0.6 1.3 1.4v18.6c0 0.8-0.5 1.4-1.3 1.4h-36.7c-0.8 0-1.3-0.6-1.3-1.4v-18.6c0-0.8 0.5-1.4 1.3-1.4zm3.9 1.4v0.6c0 1.9-1.4 3.4-3.3 3.4h-0.6v10.6h0.6c1.9 0 3.3 1.5 3.3 3.4v0.6h28.9v-0.6c0-1.9 1.4-3.4 3.3-3.4h0.6v-10.6h-0.6c-1.9 0-3.3-1.5-3.3-3.4v-0.6zm1.2 1.3h8.5c-2.7 1.6-4.5 4.6-4.5 8 0 3.4 1.8 6.4 4.5 8h-8.5c-0.3-2-1.9-3.6-3.8-3.9v-8.2c1.9-0.3 3.5-1.9 3.8-3.9zm13.2 0c4.4 0 7.9 3.6 7.9 8 0 4.4-3.5 8-7.9 8-4.4 0-7.8-3.6-7.8-8 0-4.4 3.4-8 7.8-8zm4.7 0h8.6c0.3 2 1.8 3.6 3.8 3.9v8.2c-2 0.3-3.5 1.9-3.8 3.9h-8.6c2.7-1.6 4.5-4.6 4.5-8q0-0.1 0-0.3c-0.1-3.2-1.9-6.1-4.5-7.7zm-7.9 2.7h-0.1v1.3h1.4c1.2 0 1.8 0.6 2.1 1.3h-3.4v1.4h3.4c-0.3 0.7-0.9 1.3-2.1 1.3h-1.4v1.3h0.4l4 4 1-0.9-3.2-3.2c1.4-0.3 2.4-1.3 2.6-2.5h1.8v-1.4h-1.8q-0.1-0.7-0.6-1.3h2.4v-1.3zm-9.9 4c-0.7 0-1.3 0.6-1.3 1.3 0 0.7 0.6 1.3 1.3 1.3 0.7 0 1.3-0.6 1.3-1.3 0-0.7-0.6-1.3-1.3-1.3zm26.3 0c-0.7 0-1.3 0.6-1.3 1.3 0 0.7 0.6 1.3 1.3 1.3 0.7 0 1.3-0.6 1.3-1.3 0-0.7-0.6-1.3-1.3-1.3z"/>
</svg>