<svg version="1.2" xmlns="http://www.w3.org/2000/svg" viewBox="0 0 40 40" width="40" height="40">
	<title>hero-received-money-01</title>
	<style>
		.s0 { fill: #4ab5e3 } 
	</style>
	<g style="opacity: .1">
		<path fill-rule="evenodd" class="s0" d="m7 1h24c4.4 0 8 3.6 8 8v24c0 4.4-3.6 8-8 8h-24c-4.4 0-8-3.6-8-8v-24c0-4.4 3.6-8 8-8z"/>
	</g>
	<path class="s0" d="m20.8 20.9c2.7 0 4.9-2.2 4.9-5 0-2.7-2.2-4.9-4.9-4.9-2.7 0-5 2.2-5 4.9 0 2.8 2.3 5 5 5zm-0.6-7.9v-0.1c0-0.3 0.3-0.6 0.6-0.6 0.3 0 0.6 0.3 0.6 0.6v0.1c0.7 0.2 1.2 0.8 1.2 1.6 0 0.3-0.3 0.5-0.6 0.5-0.3 0-0.6-0.2-0.6-0.5 0-0.3-0.1-0.4-0.3-0.4h-0.6c-0.2 0-0.3 0.1-0.3 0.4q0 0.1 0.1 0.3l0.5 0.3 1.2 0.9c0.4 0.3 0.6 0.7 0.6 1.2 0 0.4-0.2 0.8-0.4 1.1q-0.4 0.4-0.8 0.5v0.1c0 0.3-0.3 0.6-0.6 0.6-0.3 0-0.6-0.3-0.6-0.6v-0.1q-0.4-0.1-0.8-0.5c-0.3-0.2-0.4-0.6-0.4-1 0-0.4 0.2-0.6 0.6-0.6 0.3 0 0.6 0.2 0.6 0.5 0 0.2 0.1 0.4 0.3 0.4 0.4 0 0.2 0 0.6 0 0.2 0 0.3-0.2 0.3-0.4q0-0.2-0.1-0.3l-0.5-0.3-1.2-0.9c-0.4-0.3-0.6-0.8-0.6-1.2 0-0.8 0.5-1.4 1.2-1.6z"/>
	<path class="s0" d="m12.8 23.7c-0.2-0.3-0.5-0.3-0.8-0.2l-2.7 1.6c-0.3 0.2-0.4 0.5-0.2 0.7l2.8 4.9c0.1 0.3 0.5 0.4 0.7 0.2l2.8-1.6c0.3-0.1 0.3-0.5 0.2-0.7z"/>
	<path class="s0" d="m28.6 22.7c-0.3-0.3-0.8-0.4-1.2-0.2-1.1 0.9-3.2 2.4-3.4 2.5q-0.1 0.1-0.3 0.2-0.5 0.3-1.1 0.3h-2.8c-0.3 0-0.6-0.2-0.6-0.6 0-0.3 0.3-0.5 0.6-0.5h3c0.4 0 0.8-0.4 0.8-0.9 0-0.4-0.4-0.7-0.8-0.7h-2.3q-0.2-0.2-0.5-0.4c-0.6-0.5-1.4-0.8-2.2-0.8-1.5 0-3 1-3.6 2.2l2.4 4.2h4.5c0.9 0 1.7-0.3 2.5-0.7q0.4-0.2 0.9-0.6c1.2-0.9 3.9-2.8 3.9-2.8 0.3-0.3 0.4-0.8 0.2-1.2z"/>
</svg>